<svg width="50" height="50" viewBox="0 0 50 50" fill="none" xmlns="http://www.w3.org/2000/svg">
<rect width="50" height="50" rx="4" fill="#FF4001"/>
<path d="M21.972 38.79H24.556L31.396 19.676C32.042 17.89 32.536 16.864 32.992 15.914H33.182C33.106 17.472 33.258 19.296 33.296 21.006L33.676 33.166C33.752 35.75 33.144 36.358 30.978 36.548V38.6H43.632V36.548C41.276 36.244 40.744 35.978 40.592 33.166L39.794 17.586C39.642 15.116 40.478 14.318 42.796 14.052V12H31.776L26.988 24.084C26 26.592 25.468 28.378 25.278 29.556H25.088C24.936 28.34 24.708 27.352 23.378 23.704L19.046 12H7.912V14.052C10.268 14.28 11.028 14.888 10.914 17.586L10.078 33.356C9.926 35.978 9.546 36.244 7 36.548V38.6H15.398V36.51C13.384 36.396 12.738 35.978 12.852 33.508L13.536 20.36C13.612 18.65 13.612 17.472 13.498 16.028L13.726 15.99C14.22 17.13 14.638 18.194 15.398 20.36L21.972 38.79Z" fill="#FFE57B"/>
</svg>
