<svg width="50" height="50" viewBox="0 0 50 50" fill="none" xmlns="http://www.w3.org/2000/svg">
<path d="M46.3939 0H3.60605C1.61436 0 0 1.61436 0 3.60605V46.3939C0 48.3856 1.61436 50 3.60605 50H46.3939C48.3856 50 50 48.3856 50 46.3939V3.60605C50 1.61436 48.3856 0 46.3939 0V0ZM37.5241 19.1366V22.5168C35.9302 22.5174 34.3814 22.2051 32.9209 21.5888C31.9817 21.1923 31.1067 20.6813 30.3064 20.0641L30.3305 30.4686C30.3204 32.8114 29.3936 35.0127 27.716 36.6707C26.3508 38.0203 24.6208 38.8786 22.7458 39.1563C22.3052 39.2216 21.8568 39.2551 21.4034 39.2551C19.3963 39.2551 17.4906 38.6048 15.9318 37.4052C15.6385 37.1793 15.358 36.9345 15.0908 36.6707C13.2728 34.8738 12.3353 32.4383 12.4931 29.8763C12.6136 27.926 13.3943 26.066 14.696 24.6082C16.4182 22.6791 18.8274 21.6083 21.4034 21.6083C21.8568 21.6083 22.3052 21.6423 22.7458 21.7076V22.9574V26.4341C22.3281 26.2963 21.8819 26.2205 21.4174 26.2205C19.0639 26.2205 17.1599 28.1406 17.195 30.4958C17.2173 32.0027 18.0405 33.32 19.2546 34.0461C19.8251 34.3874 20.4815 34.5987 21.182 34.6372C21.7309 34.6673 22.2578 34.5909 22.7458 34.4298C24.4272 33.8743 25.6402 32.2949 25.6402 30.4322L25.6458 23.4648V10.7449H30.3009C30.3054 11.2062 30.3521 11.6562 30.4392 12.0923C30.7905 13.8574 31.7854 15.3889 33.1702 16.4329C34.3776 17.3437 35.8812 17.8835 37.5108 17.8835C37.5119 17.8835 37.5253 17.8835 37.5242 17.8824V19.1366H37.5241Z" fill="#FF4001"/>
</svg>
