<svg width="50" height="50" viewBox="0 0 50 50" fill="none" xmlns="http://www.w3.org/2000/svg">
<path d="M21.886 29.6838L30.0182 25.0001L21.886 20.3164V29.6838Z" fill="#FF4001"/>
<path d="M46.394 0H3.60603C1.61438 0 0 1.61438 0 3.60603V46.394C0 48.3856 1.61438 50 3.60603 50H46.394C48.3856 50 50 48.3856 50 46.394V3.60603C50 1.61438 48.3856 0 46.394 0V0ZM40.6212 25.0256C40.6212 25.0256 40.6212 30.0957 39.978 32.5405C39.6175 33.8787 38.5624 34.9339 37.2242 35.294C34.7794 35.9375 25 35.9375 25 35.9375C25 35.9375 15.2462 35.9375 12.7758 35.2684C11.4376 34.9083 10.3825 33.8528 10.022 32.5146C9.37843 30.0957 9.37843 25 9.37843 25C9.37843 25 9.37843 19.9303 10.022 17.4854C10.3821 16.1472 11.4632 15.0661 12.7758 14.706C15.2206 14.0625 25 14.0625 25 14.0625C25 14.0625 34.7794 14.0625 37.2242 14.7316C38.5624 15.0917 39.6175 16.1472 39.978 17.4854C40.6471 19.9303 40.6212 25.0256 40.6212 25.0256Z" fill="#FF4001"/>
</svg>
